<?xml version="1.0" encoding="UTF-8"?>
<svg xmlns="http://www.w3.org/2000/svg" xmlns:xlink="http://www.w3.org/1999/xlink" width="16px" height="16px" viewBox="0 0 16 16" version="1.1">
<g id="surface1">
<path style=" stroke:none;fill-rule:nonzero;fill:rgb(15.686275%,12.156863%,9.411765%);fill-opacity:1;" d="M 7.953125 0.402344 C 9.074219 0.382812 10.382812 0.558594 11.257812 1.335938 C 11.988281 1.472656 12.6875 1.28125 13.394531 1.613281 C 14.78125 2.078125 15.804688 3.464844 15.6875 4.941406 C 15.675781 7.289062 15.710938 9.640625 15.675781 11.984375 C 15.484375 13.714844 13.925781 15.132812 12.191406 15.183594 C 11.148438 15.25 10.09375 15.136719 9.054688 15.242188 C 8.453125 15.550781 7.855469 15.859375 7.265625 15.300781 C 6.476562 15.097656 5.644531 15.25 4.835938 15.203125 C 3.535156 15.28125 2.132812 14.933594 1.28125 13.890625 C 0.585938 13.113281 0.351562 12.042969 0.425781 11.027344 C 0.4375 8.84375 0.394531 6.664062 0.441406 4.484375 C 0.5 3.050781 1.617188 1.835938 2.980469 1.488281 C 3.640625 1.199219 4.257812 1.539062 4.902344 1.269531 C 5.707031 0.613281 6.941406 0.390625 7.953125 0.402344 Z M 7.953125 0.402344 "/>
<path style=" stroke:none;fill-rule:nonzero;fill:rgb(65.098041%,54.901963%,40.392157%);fill-opacity:1;" d="M 7.996094 0.800781 C 8.957031 0.757812 9.96875 0.910156 10.777344 1.46875 C 10.820312 1.589844 10.035156 1.722656 10.5 1.910156 C 11.238281 2.136719 11.917969 2.617188 12.316406 3.285156 C 12.222656 3.386719 11.605469 3.355469 11.96875 3.71875 C 12.59375 4.375 13.035156 5.253906 13.03125 6.175781 C 12.828125 6.015625 12.34375 5.691406 12.464844 6.191406 C 12.511719 6.929688 12.296875 7.738281 11.707031 8.21875 C 11.738281 7.917969 11.484375 7.3125 11.226562 7.808594 C 10.945312 8.242188 10.589844 8.628906 10.15625 8.910156 C 10.199219 8.464844 10.039062 7.925781 10.011719 7.464844 C 10.089844 6.84375 10.019531 6.203125 9.753906 5.632812 C 10.019531 5.4375 10.476562 5.25 10.625 4.859375 C 10.96875 4.222656 10.609375 3.277344 9.855469 3.167969 C 9.121094 3.023438 8.410156 3.394531 7.675781 3.265625 C 7.066406 3.183594 6.347656 2.964844 5.808594 3.375 C 5.171875 3.855469 5.246094 4.921875 5.90625 5.34375 C 6.175781 5.503906 6.503906 5.578125 6.246094 5.933594 C 6.046875 6.496094 6.023438 7.113281 6.128906 7.695312 C 5.964844 8.058594 5.945312 8.464844 5.992188 8.855469 C 5.734375 8.824219 5.304688 8.390625 5.082031 8.09375 C 4.957031 7.742188 4.453125 7.351562 4.445312 7.984375 C 4.421875 8.492188 3.992188 7.726562 3.886719 7.53125 C 3.625 7.066406 3.667969 6.527344 3.671875 6.015625 C 3.558594 5.585938 2.976562 6.542969 3.105469 5.933594 C 3.175781 5.070312 3.664062 4.3125 4.203125 3.664062 C 4.507812 3.191406 3.464844 3.527344 3.917969 3.09375 C 4.363281 2.507812 4.992188 2.054688 5.714844 1.882812 C 5.945312 1.558594 4.964844 1.59375 5.527344 1.351562 C 6.265625 0.90625 7.144531 0.792969 7.996094 0.800781 Z M 7.996094 0.800781 "/>
<path style=" stroke:none;fill-rule:nonzero;fill:rgb(84.313726%,34.117648%,14.901961%);fill-opacity:1;" d="M 4.058594 1.335938 C 4.335938 1.382812 5.316406 1.082031 4.792969 1.492188 C 4.695312 1.753906 4.976562 1.820312 4.582031 1.984375 C 3.992188 2.378906 3.441406 2.917969 3.246094 3.617188 C 3.183594 4.015625 3.835938 3.648438 3.445312 4.03125 C 2.914062 4.871094 2.597656 5.886719 2.710938 6.882812 C 3.023438 7.105469 3.371094 6.234375 3.308594 6.921875 C 3.558594 7.496094 2.71875 7.644531 2.515625 8.117188 C 1.730469 9.132812 1.144531 10.359375 1.039062 11.652344 C 0.945312 12.417969 1.230469 13.304688 1.984375 13.628906 C 2.539062 13.992188 3.128906 13.554688 3.679688 13.777344 C 4.058594 13.867188 3.769531 14.648438 4.390625 14.515625 C 5.265625 14.671875 6.140625 14.871094 6.976562 15.179688 C 6.589844 15.230469 6.117188 15.191406 5.695312 15.203125 C 4.472656 15.210938 3.128906 15.308594 2.066406 14.578125 C 0.96875 13.882812 0.328125 12.574219 0.425781 11.285156 C 0.433594 9.054688 0.40625 6.824219 0.433594 4.597656 C 0.460938 3.414062 1.179688 2.296875 2.246094 1.78125 C 2.800781 1.5 3.128906 1.34375 3.753906 1.351562 Z M 4.058594 1.335938 "/>
<path style=" stroke:none;fill-rule:nonzero;fill:rgb(84.313726%,34.117648%,14.901961%);fill-opacity:1;" d="M 11.257812 1.335938 C 12.460938 1.296875 13.785156 1.46875 14.679688 2.363281 C 15.417969 3.042969 15.761719 4.078125 15.6875 5.066406 C 15.683594 7.34375 15.699219 9.621094 15.683594 11.898438 C 15.542969 13.503906 14.222656 14.898438 12.628906 15.132812 C 11.515625 15.273438 10.390625 15.175781 9.273438 15.203125 C 8.992188 15.167969 9.738281 14.949219 9.914062 14.914062 C 10.632812 14.730469 11.359375 14.578125 12.085938 14.441406 C 12.273438 14.140625 12.148438 13.675781 12.679688 13.707031 C 13.195312 13.667969 13.789062 13.949219 14.285156 13.554688 C 14.929688 13.214844 15.160156 12.441406 15.09375 11.757812 C 15 10.40625 14.410156 9.101562 13.554688 8.0625 C 13.328125 7.59375 12.515625 7.457031 12.820312 6.847656 C 12.746094 6.304688 13.421875 7.34375 13.453125 6.675781 C 13.476562 5.65625 13.144531 4.636719 12.542969 3.816406 C 13.253906 3.878906 12.597656 2.953125 12.355469 2.695312 C 12.183594 2.320312 11.394531 2.042969 11.410156 1.800781 C 11.699219 1.703125 11.332031 1.457031 11.257812 1.335938 Z M 11.257812 1.335938 "/>
<path style=" stroke:none;fill-rule:nonzero;fill:rgb(87.450981%,34.509805%,24.313726%);fill-opacity:1;" d="M 7.21875 3.566406 C 7.851562 3.714844 8.511719 3.679688 9.136719 3.523438 C 9.53125 3.441406 10.03125 3.492188 10.257812 3.867188 C 10.484375 4.25 10.355469 4.792969 9.992188 5.046875 C 9.816406 5.199219 9.578125 5.226562 9.355469 5.222656 C 8.964844 5.289062 9.34375 5.660156 9.425781 5.851562 C 9.660156 6.351562 9.695312 6.925781 9.621094 7.464844 C 9.484375 7.738281 9.722656 7.960938 9.761719 8.226562 C 9.875 8.550781 9.667969 8.855469 9.335938 8.910156 C 8.773438 9.109375 8.171875 9.207031 7.578125 9.113281 C 7.167969 9.042969 6.742188 8.949219 6.402344 8.691406 C 6.273438 8.394531 6.375 8.042969 6.539062 7.777344 C 6.566406 7.480469 6.359375 7.183594 6.433594 6.867188 C 6.480469 6.371094 6.625 5.871094 6.929688 5.472656 C 7.089844 5.121094 6.535156 5.296875 6.363281 5.167969 C 5.941406 5.019531 5.667969 4.550781 5.765625 4.113281 C 5.824219 3.816406 6.0625 3.574219 6.363281 3.519531 C 6.644531 3.449219 6.941406 3.515625 7.21875 3.566406 Z M 7.21875 3.566406 "/>
<path style=" stroke:none;fill-rule:nonzero;fill:rgb(98.431373%,94.901961%,90.196079%);fill-opacity:1;" d="M 3.652344 9.558594 C 4.527344 9.738281 5.398438 9.964844 6.261719 10.203125 C 6.816406 10.378906 7.355469 10.605469 7.871094 10.875 C 7.871094 12.296875 7.871094 13.71875 7.871094 15.140625 C 7.34375 14.921875 6.8125 14.691406 6.253906 14.554688 C 5.613281 14.382812 4.964844 14.261719 4.316406 14.121094 C 4.035156 13.695312 4.925781 13.792969 4.828125 13.308594 C 4.898438 13.039062 5.316406 12.964844 5.222656 12.589844 C 5 12.25 5.617188 11.976562 5.28125 11.601562 C 4.960938 11.167969 4.386719 11.066406 3.894531 10.925781 C 3.75 10.652344 3.765625 10.242188 3.691406 9.914062 C 3.675781 9.796875 3.652344 9.675781 3.652344 9.558594 Z M 3.652344 9.558594 "/>
<path style=" stroke:none;fill-rule:nonzero;fill:rgb(98.431373%,94.901961%,90.196079%);fill-opacity:1;" d="M 12.460938 9.558594 C 12.429688 10.007812 12.339844 10.449219 12.277344 10.894531 C 11.789062 11.082031 11.183594 11.136719 10.851562 11.582031 C 10.605469 11.859375 10.878906 12.191406 10.941406 12.398438 C 10.777344 12.746094 11.027344 13.0625 11.285156 13.226562 C 11.207031 13.613281 11.664062 13.773438 11.863281 13.894531 C 11.914062 14.3125 11.363281 14.15625 11.097656 14.277344 C 10.128906 14.472656 9.160156 14.71875 8.257812 15.140625 C 8.253906 13.746094 8.238281 12.351562 8.242188 10.957031 C 8.492188 10.640625 8.984375 10.570312 9.351562 10.398438 C 10.347656 10.054688 11.378906 9.820312 12.402344 9.558594 Z M 12.460938 9.558594 "/>
<path style=" stroke:none;fill-rule:nonzero;fill:rgb(58.431375%,50.980395%,39.215687%);fill-opacity:1;" d="M 12.582031 7.6875 C 13.199219 8.058594 13.585938 8.710938 13.941406 9.320312 C 14.472656 10.300781 14.929688 11.460938 14.617188 12.582031 C 14.589844 12.792969 14.164062 13.359375 14.308594 12.839844 C 14.433594 11.964844 13.835938 11.074219 12.972656 10.875 C 12.402344 10.835938 12.871094 10.050781 12.847656 9.660156 C 13.082031 8.984375 12.335938 9.148438 11.949219 9.292969 C 11.191406 9.46875 10.441406 9.65625 9.699219 9.886719 C 9.707031 9.5 10.277344 9.253906 10.640625 9.054688 C 10.914062 8.976562 11.207031 8.269531 11.371094 8.414062 C 11.410156 9.160156 12.101562 8.449219 12.289062 8.15625 C 12.398438 8.007812 12.492188 7.847656 12.582031 7.6875 Z M 12.582031 7.6875 "/>
<path style=" stroke:none;fill-rule:nonzero;fill:rgb(58.823532%,50.980395%,39.215687%);fill-opacity:1;" d="M 3.488281 7.6875 C 3.800781 8.039062 4.003906 8.550781 4.464844 8.769531 C 4.859375 8.910156 4.648438 8.035156 4.945312 8.515625 C 5.277344 8.941406 5.734375 9.253906 6.210938 9.464844 C 6.347656 9.710938 6.703125 10.046875 6.210938 9.824219 C 5.300781 9.558594 4.375 9.324219 3.445312 9.136719 C 2.984375 9.398438 3.453125 10.144531 3.417969 10.613281 C 3.484375 11.011719 2.71875 10.851562 2.5 11.195312 C 1.910156 11.609375 1.699219 12.394531 1.855469 13.078125 C 1.464844 12.804688 1.40625 12.234375 1.40625 11.78125 C 1.464844 10.316406 2.253906 8.988281 3.1875 7.902344 C 3.269531 7.808594 3.378906 7.746094 3.488281 7.6875 Z M 3.488281 7.6875 "/>
<path style=" stroke:none;fill-rule:nonzero;fill:rgb(58.823532%,50.980395%,39.215687%);fill-opacity:1;" d="M 13.132812 11.308594 C 13.765625 11.617188 14.132812 12.433594 13.847656 13.09375 C 13.609375 13.648438 13.066406 13.191406 12.679688 13.320312 C 12.402344 13.4375 11.621094 13.691406 11.695312 13.195312 C 12.0625 13 12.503906 12.972656 12.875 12.792969 C 13.070312 12.21875 12.230469 12.65625 11.960938 12.714844 C 11.71875 12.878906 11.070312 12.902344 11.355469 12.46875 C 11.660156 12.261719 12.054688 12.222656 12.410156 12.121094 C 12.789062 12.203125 12.917969 11.585938 12.476562 11.730469 C 12.050781 11.789062 11.664062 12.027344 11.238281 12.035156 C 10.929688 11.65625 11.667969 11.433594 11.949219 11.328125 C 12.328125 11.21875 12.761719 11.132812 13.132812 11.308594 Z M 13.132812 11.308594 "/>
<path style=" stroke:none;fill-rule:nonzero;fill:rgb(58.823532%,50.980395%,39.215687%);fill-opacity:1;" d="M 4.121094 11.367188 C 4.425781 11.421875 5.28125 11.710938 4.824219 12.039062 C 4.351562 12.007812 3.929688 11.707031 3.445312 11.71875 C 3.089844 12.105469 3.867188 12.144531 4.113281 12.226562 C 4.40625 12.25 5.160156 12.558594 4.679688 12.832031 C 4.183594 12.839844 3.75 12.460938 3.257812 12.503906 C 2.984375 12.925781 3.792969 12.914062 4.054688 13.054688 C 4.476562 13.023438 4.585938 13.554688 4.097656 13.476562 C 3.75 13.492188 3.445312 13.257812 3.101562 13.273438 C 2.832031 13.515625 2.371094 13.402344 2.253906 13.058594 C 1.984375 12.402344 2.382812 11.617188 2.988281 11.308594 C 3.351562 11.15625 3.757812 11.253906 4.121094 11.367188 Z M 4.121094 11.367188 "/>
<path style=" stroke:none;fill-rule:nonzero;fill:rgb(87.058824%,33.333334%,23.137255%);fill-opacity:1;" d="M 6.527344 9.144531 C 6.835938 9.285156 7.160156 9.390625 7.5 9.433594 C 8.191406 9.527344 8.929688 9.472656 9.5625 9.15625 C 9.6875 9.113281 9.566406 9.300781 9.546875 9.363281 C 9.359375 9.726562 8.984375 9.945312 8.613281 10.078125 C 8.261719 10.203125 7.863281 10.222656 7.507812 10.082031 C 7.171875 9.972656 6.882812 9.742188 6.664062 9.46875 C 6.59375 9.375 6.527344 9.265625 6.527344 9.144531 Z M 6.527344 9.144531 "/>
<path style=" stroke:none;fill-rule:nonzero;fill:rgb(98.039216%,94.901961%,90.588236%);fill-opacity:1;" d="M 7.527344 5.210938 C 7.519531 5.871094 7.304688 6.5 7.179688 7.140625 C 7.203125 7.300781 7.042969 7.347656 6.9375 7.417969 C 6.839844 7.507812 6.6875 7.546875 6.628906 7.667969 C 6.507812 7.714844 6.511719 7.476562 6.472656 7.386719 C 6.371094 6.824219 6.496094 6.230469 6.757812 5.726562 C 6.855469 5.601562 6.933594 5.4375 7.007812 5.320312 C 7.179688 5.289062 7.351562 5.226562 7.527344 5.210938 Z M 7.527344 5.210938 "/>
<path style=" stroke:none;fill-rule:nonzero;fill:rgb(98.039216%,94.901961%,90.196079%);fill-opacity:1;" d="M 8.605469 5.191406 C 8.789062 5.234375 8.980469 5.261719 9.15625 5.328125 C 9.1875 5.460938 9.257812 5.570312 9.335938 5.679688 C 9.585938 6.105469 9.667969 6.609375 9.652344 7.097656 C 9.648438 7.257812 9.675781 7.421875 9.621094 7.574219 C 9.585938 7.648438 9.511719 7.734375 9.457031 7.621094 C 9.324219 7.484375 9.148438 7.40625 9.007812 7.28125 C 8.921875 7.148438 8.921875 6.980469 8.875 6.828125 C 8.765625 6.324219 8.636719 5.824219 8.605469 5.308594 C 8.605469 5.269531 8.605469 5.230469 8.605469 5.191406 Z M 8.605469 5.191406 "/>
<path style=" stroke:none;fill-rule:nonzero;fill:rgb(16.078432%,12.941177%,9.803922%);fill-opacity:1;" d="M 7.8125 4.796875 C 7.863281 4.839844 7.886719 4.875 7.898438 4.9375 C 7.902344 4.996094 7.902344 5.046875 7.902344 5.101562 C 7.902344 5.125 7.902344 5.144531 7.902344 5.164062 C 7.894531 5.542969 7.824219 5.917969 7.742188 6.285156 C 7.730469 6.335938 7.71875 6.386719 7.707031 6.4375 C 7.5625 7.082031 7.5625 7.082031 7.445312 7.257812 C 7.382812 7.261719 7.382812 7.261719 7.308594 7.261719 C 7.285156 7.261719 7.261719 7.261719 7.238281 7.261719 C 7.179688 7.257812 7.179688 7.257812 7.160156 7.238281 C 7.15625 7.054688 7.210938 6.875 7.253906 6.699219 C 7.277344 6.613281 7.296875 6.527344 7.316406 6.441406 C 7.320312 6.425781 7.324219 6.410156 7.328125 6.394531 C 7.421875 6.011719 7.480469 5.628906 7.515625 5.238281 C 7.515625 5.222656 7.519531 5.207031 7.519531 5.1875 C 7.523438 5.15625 7.527344 5.125 7.527344 5.09375 C 7.539062 4.988281 7.570312 4.910156 7.632812 4.820312 C 7.695312 4.78125 7.742188 4.789062 7.8125 4.796875 Z M 7.8125 4.796875 "/>
<path style=" stroke:none;fill-rule:nonzero;fill:rgb(15.686275%,12.54902%,9.411765%);fill-opacity:1;" d="M 8.386719 4.789062 C 8.464844 4.796875 8.464844 4.796875 8.519531 4.847656 C 8.625 4.984375 8.613281 5.179688 8.628906 5.34375 C 8.660156 5.777344 8.75 6.199219 8.851562 6.625 C 8.855469 6.636719 8.859375 6.652344 8.863281 6.664062 C 8.878906 6.730469 8.894531 6.796875 8.910156 6.863281 C 8.941406 6.996094 8.960938 7.117188 8.953125 7.257812 C 8.917969 7.257812 8.878906 7.261719 8.84375 7.261719 C 8.824219 7.261719 8.804688 7.261719 8.785156 7.265625 C 8.730469 7.257812 8.730469 7.257812 8.695312 7.222656 C 8.664062 7.171875 8.648438 7.128906 8.632812 7.070312 C 8.625 7.050781 8.617188 7.03125 8.613281 7.007812 C 8.605469 6.984375 8.597656 6.960938 8.589844 6.9375 C 8.582031 6.914062 8.578125 6.890625 8.570312 6.867188 C 8.546875 6.792969 8.527344 6.71875 8.503906 6.648438 C 8.496094 6.625 8.492188 6.601562 8.484375 6.578125 C 8.335938 6.089844 8.242188 5.585938 8.234375 5.074219 C 8.234375 5.058594 8.230469 5.046875 8.230469 5.03125 C 8.230469 4.914062 8.257812 4.804688 8.386719 4.789062 Z M 8.386719 4.789062 "/>
<path style=" stroke:none;fill-rule:nonzero;fill:rgb(14.901961%,11.764706%,9.019608%);fill-opacity:1;" d="M 7.648438 7.609375 C 7.832031 7.710938 7.933594 7.945312 7.886719 8.152344 C 7.867188 8.210938 7.847656 8.304688 7.769531 8.304688 C 7.652344 8.304688 7.558594 8.214844 7.464844 8.15625 C 7.398438 8.101562 7.3125 8.0625 7.269531 7.984375 C 7.226562 7.902344 7.226562 7.796875 7.277344 7.714844 C 7.351562 7.632812 7.460938 7.570312 7.574219 7.59375 C 7.601562 7.597656 7.625 7.601562 7.648438 7.609375 Z M 7.648438 7.609375 "/>
<path style=" stroke:none;fill-rule:nonzero;fill:rgb(14.901961%,11.764706%,9.019608%);fill-opacity:1;" d="M 8.796875 7.660156 C 8.867188 7.714844 8.890625 7.816406 8.875 7.902344 C 8.847656 7.996094 8.769531 8.066406 8.691406 8.121094 C 8.601562 8.179688 8.515625 8.25 8.417969 8.296875 C 8.355469 8.332031 8.28125 8.28125 8.257812 8.222656 C 8.207031 8.105469 8.226562 7.96875 8.277344 7.851562 C 8.324219 7.75 8.394531 7.65625 8.496094 7.601562 C 8.585938 7.578125 8.6875 7.589844 8.765625 7.644531 C 8.777344 7.648438 8.785156 7.652344 8.796875 7.660156 Z M 8.796875 7.660156 "/>
<path style=" stroke:none;fill-rule:nonzero;fill:rgb(15.686275%,12.54902%,9.411765%);fill-opacity:1;" d="M 9.199219 4.34375 C 9.273438 4.390625 9.324219 4.4375 9.371094 4.507812 C 9.390625 4.605469 9.390625 4.695312 9.335938 4.78125 C 9.273438 4.851562 9.230469 4.890625 9.132812 4.902344 C 9.011719 4.90625 8.941406 4.898438 8.851562 4.816406 C 8.785156 4.722656 8.773438 4.632812 8.789062 4.523438 C 8.832031 4.4375 8.886719 4.382812 8.972656 4.339844 C 9.050781 4.3125 9.121094 4.320312 9.199219 4.34375 Z M 9.199219 4.34375 "/>
<path style=" stroke:none;fill-rule:nonzero;fill:rgb(15.686275%,12.156863%,9.411765%);fill-opacity:1;" d="M 7.136719 4.34375 C 7.222656 4.394531 7.285156 4.453125 7.320312 4.542969 C 7.332031 4.644531 7.320312 4.710938 7.261719 4.796875 C 7.160156 4.886719 7.097656 4.902344 6.964844 4.902344 C 6.886719 4.894531 6.847656 4.867188 6.792969 4.816406 C 6.730469 4.730469 6.710938 4.644531 6.730469 4.542969 C 6.820312 4.371094 6.945312 4.296875 7.136719 4.34375 Z M 7.136719 4.34375 "/>
<path style=" stroke:none;fill-rule:nonzero;fill:rgb(86.666667%,36.862746%,16.862746%);fill-opacity:1;" d="M 6.566406 15.0625 C 6.671875 15.085938 6.773438 15.109375 6.871094 15.140625 C 6.871094 15.148438 6.871094 15.15625 6.871094 15.164062 C 6.636719 15.164062 6.402344 15.164062 6.160156 15.164062 C 6.160156 15.15625 6.160156 15.148438 6.160156 15.140625 C 6.359375 15.132812 6.359375 15.132812 6.566406 15.121094 C 6.566406 15.101562 6.566406 15.082031 6.566406 15.0625 Z M 6.566406 15.0625 "/>
<path style=" stroke:none;fill-rule:nonzero;fill:rgb(84.705883%,32.156864%,21.960784%);fill-opacity:1;" d="M 8.914062 7.789062 C 8.917969 7.789062 8.925781 7.789062 8.933594 7.789062 C 8.945312 7.847656 8.953125 7.902344 8.953125 7.964844 C 8.914062 7.984375 8.914062 7.984375 8.871094 8.003906 C 8.859375 7.992188 8.84375 7.976562 8.832031 7.964844 C 8.839844 7.957031 8.851562 7.949219 8.859375 7.941406 C 8.902344 7.894531 8.90625 7.851562 8.914062 7.789062 Z M 8.914062 7.789062 "/>
</g>
</svg>
