<?xml version="1.0" encoding="UTF-8" standalone="no"?>
<!-- Created with Inkscape (http://www.inkscape.org/) -->

<svg
   xmlns:dc="http://purl.org/dc/elements/1.1/"
   xmlns:cc="http://creativecommons.org/ns#"
   xmlns:rdf="http://www.w3.org/1999/02/22-rdf-syntax-ns#"
   xmlns:svg="http://www.w3.org/2000/svg"
   xmlns="http://www.w3.org/2000/svg"
   xmlns:sodipodi="http://sodipodi.sourceforge.net/DTD/sodipodi-0.dtd"
   xmlns:inkscape="http://www.inkscape.org/namespaces/inkscape"
   width="40"
   height="40"
   viewBox="0 0 10.583333 10.583333"
   version="1.1"
   id="svg8"
   inkscape:version="0.92.5 (2060ec1f9f, 2020-04-08)"
   sodipodi:docname="plugin_icon.svg">
  <defs
     id="defs2" />
  <sodipodi:namedview
     id="base"
     pagecolor="#ffffff"
     bordercolor="#666666"
     borderopacity="1.0"
     inkscape:pageopacity="0.0"
     inkscape:pageshadow="2"
     inkscape:zoom="11.313709"
     inkscape:cx="50.259787"
     inkscape:cy="36.497148"
     inkscape:document-units="mm"
     inkscape:current-layer="layer1-2"
     showgrid="false"
     units="px"
     inkscape:window-width="2560"
     inkscape:window-height="1377"
     inkscape:window-x="-8"
     inkscape:window-y="-8"
     inkscape:window-maximized="1" />
  <metadata
     id="metadata5">
    <rdf:RDF>
      <cc:Work
         rdf:about="">
        <dc:format>image/svg+xml</dc:format>
        <dc:type
           rdf:resource="http://purl.org/dc/dcmitype/StillImage" />
        <dc:title></dc:title>
      </cc:Work>
    </rdf:RDF>
  </metadata>
  <g
     inkscape:label="Layer 1"
     inkscape:groupmode="layer"
     id="layer1"
     transform="translate(0,-286.41667)">
    <g
       transform="matrix(0.31254661,0,0,0.31254661,0.00132751,204.17529)"
       id="layer1-2"
       inkscape:label="Layer 1">
      <path
         style="fill:#281f18;stroke-width:0.0423838"
         d="m 16.829015,263.98416 c 2.370072,-0.0446 5.142836,0.3321 6.991575,1.97789 1.542795,0.28383 3.026757,-0.114 4.520107,0.58306 2.941501,0.98885 5.106212,3.92285 4.852662,7.04413 -0.01924,4.97 0.05263,9.94301 -0.02331,14.91115 -0.405043,3.65562 -3.69911,6.65876 -7.370622,6.76772 -2.209986,0.14101 -4.438555,-0.10094 -6.640055,0.12066 -1.276138,0.65826 -2.541901,1.30502 -3.782967,0.12705 -1.67127,-0.43309 -3.438269,-0.10909 -5.150153,-0.20398 -2.7454374,0.16473 -5.718254,-0.57698 -7.5178035,-2.78492 -1.4745042,-1.64287 -1.96676551,-3.90538 -1.81329254,-6.05979 0.024526,-4.61475 -0.0647557,-9.23257 0.0351605,-13.84532 0.12381974,-3.02968 2.49103754,-5.60173 5.37384874,-6.33624 1.3944055,-0.6106 2.6986714,0.10563 4.0642518,-0.46254 1.702958,-1.39278 4.321726,-1.86254 6.460593,-1.83887 z"
         id="path817"
         inkscape:connector-curvature="0"
         sodipodi:nodetypes="cccccccccccccccc" />
      <path
         style="fill:#a68c67;stroke-width:0.0423838"
         d="m 16.915872,264.82514 c 2.039718,-0.0878 4.17424,0.23517 5.88676,1.4148 0.09594,0.26075 -1.572141,0.54004 -0.586872,0.9351 1.563236,0.47889 3.001658,1.49653 3.84922,2.90746 -0.198285,0.22104 -1.505401,0.15354 -0.741413,0.91719 1.321808,1.39124 2.257314,3.25458 2.252039,5.20125 -0.432299,-0.33577 -1.454509,-1.01992 -1.200369,0.0359 0.103698,1.56232 -0.357295,3.26991 -1.605197,4.29272 0.06657,-0.64294 -0.471324,-1.91853 -1.017983,-0.86822 -0.591986,0.91116 -1.344814,1.73404 -2.262219,2.32496 0.09377,-0.94077 -0.249679,-2.0803 -0.30233,-3.05769 0.159552,-1.30852 0.01464,-2.66924 -0.550782,-3.87085 0.561291,-0.41601 1.53057,-0.81659 1.845041,-1.6389 0.72409,-1.34672 -0.03426,-3.35079 -1.629305,-3.58106 -1.550882,-0.30215 -3.061528,0.48207 -4.615244,0.20575 -1.287009,-0.16924 -2.806695,-0.6333 -3.950624,0.2337 -1.343087,1.01403 -1.186088,3.26879 0.20873,4.1677 0.567786,0.33973 1.267413,0.49225 0.723135,1.24405 -0.426785,1.19317 -0.475559,2.49725 -0.248316,3.73422 -0.351268,0.76851 -0.392623,1.62064 -0.29641,2.45191 -0.541317,-0.0684 -1.449986,-0.98517 -1.926638,-1.61646 -0.264349,-0.73988 -1.3265013,-1.56984 -1.3422453,-0.22899 -0.049537,1.07983 -0.9575263,-0.54063 -1.1830477,-0.95597 -0.553644,-0.98552 -0.4656598,-2.12659 -0.4521697,-3.21129 -0.2412298,-0.90758 -1.4717552,1.11664 -1.2041655,-0.17083 0.1515454,-1.82533 1.1809264,-3.43156 2.3241386,-4.80485 0.6442483,-0.99964 -1.5626897,-0.28478 -0.601459,-1.20715 0.9459641,-1.23551 2.2720426,-2.20194 3.8017906,-2.55785 0.492305,-0.68662 -1.586019,-0.61191 -0.400275,-1.12613 1.566757,-0.94365 3.428008,-1.18816 5.22621,-1.17043 z"
         id="path819"
         inkscape:connector-curvature="0" />
      <path
         style="fill:#d75726;stroke-width:0.0423838"
         d="m 8.5864568,265.95798 c 0.58787,0.10079 2.6588082,-0.53837 1.5552732,0.3335 -0.2057181,0.55064 0.385017,0.69097 -0.4508216,1.04364 -1.2476326,0.83254 -2.4103353,1.97471 -2.8252924,3.45621 -0.1343468,0.83643 1.2454429,0.0593 0.4213993,0.87114 -1.1233871,1.77582 -1.7974387,3.92981 -1.5506974,6.03631 0.6608745,0.46903 1.3947497,-1.36937 1.2579477,0.0869 0.5293087,1.21555 -1.2439831,1.52233 -1.6705798,2.52226 -1.6688988,2.15257 -2.9036901,4.74682 -3.1288499,7.48566 -0.195452,1.61647 0.4053269,3.49797 2.0031536,4.18127 1.1730318,0.76719 2.4215754,-0.15883 3.5886278,0.3145 0.7999007,0.18938 0.1889226,1.84485 1.4979931,1.56683 1.8543786,0.32807 3.7037156,0.75202 5.4722986,1.40655 -0.818283,0.1005 -1.817279,0.019 -2.704985,0.0482 -2.5936446,0.013 -5.4326315,0.22119 -7.683263,-1.32562 -2.3185674,-1.47024 -3.67888213,-4.2396 -3.47312795,-6.97184 0.0137709,-4.71743 -0.0410077,-9.4362 0.0170312,-14.15276 0.0547523,-2.50618 1.58211835,-4.8634 3.83288645,-5.95428 1.1810312,-0.60034 1.8685238,-0.92801 3.1956464,-0.9111 z"
         id="path821"
         inkscape:connector-curvature="0"
         sodipodi:nodetypes="cccccccccccccccccccc" />
      <path
         style="fill:#d75726;stroke-width:0.0423838"
         d="m 23.820633,265.96205 c 2.549745,-0.0867 5.350916,0.27951 7.240192,2.16949 1.561661,1.43891 2.296216,3.62926 2.132626,5.72505 -0.0067,4.81895 0.02703,9.63864 -0.0059,14.45713 -0.293456,3.40013 -3.094827,6.35129 -6.465815,6.84717 -2.353588,0.29779 -4.735609,0.0902 -7.10156,0.14442 -0.589735,-0.071 0.986895,-0.53623 1.361159,-0.60681 1.516787,-0.39398 3.051766,-0.71468 4.590704,-1.00221 0.39659,-0.63992 0.13095,-1.61937 1.261263,-1.5555 1.091974,-0.0793 2.34508,0.51312 3.391931,-0.31816 1.366177,-0.71854 1.85836,-2.35822 1.714485,-3.808 -0.199868,-2.85856 -1.443431,-5.61663 -3.255744,-7.81692 -0.484202,-0.99109 -2.202889,-1.2803 -1.55591,-2.56902 -0.157017,-1.1507 1.27037,1.04717 1.335108,-0.36337 0.05125,-2.16087 -0.652598,-4.31581 -1.923191,-6.05926 1.503046,0.13219 0.116909,-1.81929 -0.392922,-2.36621 -0.367688,-0.79366 -2.034448,-1.38275 -2.005189,-1.8972 0.61527,-0.20843 -0.16111,-0.7249 -0.32128,-0.9806 z"
         id="path823"
         inkscape:connector-curvature="0" />
      <path
         style="fill:#df583e;stroke-width:0.0423838"
         d="m 15.272135,270.68343 c 1.336674,0.31509 2.735734,0.24059 4.061581,-0.0921 0.832649,-0.17367 1.887574,-0.0701 2.371236,0.72683 0.481497,0.8087 0.208332,1.95957 -0.562069,2.49391 -0.373574,0.32309 -0.872685,0.3852 -1.3471,0.37685 -0.828196,0.14086 -0.02783,0.926 0.145238,1.33132 0.496666,1.05449 0.571778,2.26735 0.418996,3.40918 -0.29259,0.57905 0.212379,1.05113 0.291157,1.61048 0.242065,0.69308 -0.194181,1.33139 -0.8989,1.45198 -1.187189,0.42022 -2.464313,0.62714 -3.717794,0.42542 -0.86657,-0.14824 -1.772962,-0.34576 -2.48604,-0.88902 -0.277422,-0.62951 -0.05824,-1.37414 0.289186,-1.93303 0.05414,-0.63018 -0.386615,-1.25917 -0.225214,-1.93005 0.09655,-1.04572 0.400567,-2.10868 1.049163,-2.94837 0.341202,-0.74755 -0.838551,-0.37068 -1.197548,-0.64555 -0.891725,-0.31648 -1.469599,-1.30656 -1.269436,-2.23556 0.125439,-0.62875 0.633831,-1.13862 1.267526,-1.25375 0.594528,-0.15299 1.220429,-0.006 1.810018,0.10143 z"
         id="path825"
         inkscape:connector-curvature="0" />
      <path
         style="fill:#fbf2e6;stroke-width:0.0423838"
         d="m 7.7217254,283.35961 c 1.8564455,0.3854 3.6951226,0.86399 5.5234636,1.36652 1.176472,0.36877 2.318569,0.85081 3.410783,1.42214 0,3.01058 0,6.02117 0,9.03175 -1.119456,-0.46962 -2.241419,-0.95244 -3.425941,-1.24365 -1.350704,-0.36711 -2.728624,-0.61934 -4.0956346,-0.91509 -0.6005914,-0.90156 1.2890996,-0.69469 1.0825596,-1.72239 0.144857,-0.56952 1.033131,-0.72467 0.831327,-1.52193 -0.46967,-0.71825 0.833006,-1.29754 0.124609,-2.08735 -0.678312,-0.92158 -1.8969171,-1.13268 -2.9316728,-1.43444 -0.3098887,-0.57698 -0.2785277,-1.44512 -0.4312514,-2.13818 -0.03194,-0.25201 -0.08499,-0.5026 -0.088242,-0.75738 z"
         id="path827"
         inkscape:connector-curvature="0" />
      <path
         style="fill:#fbf2e6;stroke-width:0.0423838"
         d="m 26.367109,283.35961 c -0.06839,0.95077 -0.255131,1.88746 -0.388439,2.83023 -1.029429,0.39925 -2.31044,0.50988 -3.019143,1.45482 -0.516788,0.58434 0.05867,1.28618 0.192123,1.73182 -0.350917,0.7315 0.17918,1.40161 0.730194,1.74532 -0.166975,0.82442 0.798267,1.16331 1.219426,1.41384 0.10563,0.88578 -1.058579,0.55722 -1.617086,0.81659 -2.055512,0.40745 -4.10614,0.93004 -6.008148,1.82782 -0.01252,-2.95282 -0.04705,-5.90702 -0.038,-8.85903 0.531833,-0.66897 1.572794,-0.81468 2.348383,-1.17874 2.109841,-0.73227 4.292115,-1.22688 6.453062,-1.77932 l 0.127719,-0.003 z"
         id="path829"
         inkscape:connector-curvature="0" />
      <path
         style="fill:#958264;stroke-width:0.0423838"
         d="m 26.626073,279.40562 c 1.302351,0.78437 2.11929,2.16697 2.875995,3.44911 1.120237,2.07441 2.0918,4.53478 1.431513,6.90845 -0.06453,0.44164 -0.961798,1.64719 -0.656793,0.5457 0.262161,-1.85205 -1.001313,-3.73924 -2.830103,-4.1614 -1.20331,-0.0822 -0.20923,-1.74276 -0.26202,-2.57053 0.496069,-1.42737 -1.085526,-1.08524 -1.901993,-0.77799 -1.598231,0.37428 -3.192325,0.77165 -4.760428,1.25805 0.02038,-0.82098 1.224552,-1.34311 1.995574,-1.76233 0.57297,-0.16669 1.198663,-1.66161 1.540877,-1.35742 0.0875,1.58546 1.549004,0.0737 1.946617,-0.54538 0.233438,-0.31122 0.43137,-0.64707 0.620761,-0.98626 z"
         id="path831"
         inkscape:connector-curvature="0" />
      <path
         style="fill:#968264;stroke-width:0.0423838"
         d="m 7.3764401,279.40562 c 0.6615505,0.74208 1.095642,1.82489 2.0717097,2.28915 0.8290482,0.29696 0.3862227,-1.55255 1.0155702,-0.53731 0.704004,0.89773 1.665688,1.56142 2.680597,2.00885 0.282387,0.5151 1.035597,1.23196 -0.0041,0.76081 -1.92807,-0.5636 -3.8828766,-1.05967 -5.8500601,-1.45453 -0.9792293,0.55395 0.013138,2.13199 -0.059466,3.11793 0.1405767,0.85138 -1.4829959,0.50485 -1.9465081,1.23371 -1.246475,0.88125 -1.6887681,2.53935 -1.3605531,3.98526 -0.829436,-0.57722 -0.9534736,-1.78051 -0.9551692,-2.74107 0.1313738,-3.09927 1.7989796,-5.91161 3.770538,-8.2142 0.178693,-0.19297 0.4103558,-0.32373 0.6374753,-0.4486 z"
         id="path833"
         inkscape:connector-curvature="0" />
      <path
         style="fill:#968264;stroke-width:0.0423838"
         d="m 27.791409,287.06388 c 1.33838,0.65415 2.11598,2.38102 1.513169,3.78015 -0.507982,1.17349 -1.657679,0.20538 -2.474646,0.48052 -0.589495,0.24879 -2.237999,0.78108 -2.082772,-0.26475 0.776215,-0.41144 1.708193,-0.47314 2.49366,-0.84832 0.419554,-1.22021 -1.357401,-0.29227 -1.932515,-0.17254 -0.509302,0.34813 -1.882021,0.40031 -1.283909,-0.51492 0.651373,-0.44472 1.486549,-0.52269 2.234652,-0.73824 0.801575,0.17015 1.075411,-1.13063 0.140081,-0.82433 -0.897598,0.11832 -1.715243,0.62746 -2.621654,0.64258 -0.651808,-0.79992 0.910845,-1.27703 1.51036,-1.49738 0.796914,-0.23168 1.719672,-0.41006 2.503574,-0.0428 z"
         id="path835"
         inkscape:connector-curvature="0" />
      <path
         style="fill:#968264;stroke-width:0.0423838"
         d="m 8.7144194,287.18874 c 0.6471212,0.11608 2.4548836,0.72526 1.4870436,1.42567 -0.9963514,-0.0695 -1.8929172,-0.70199 -2.9113451,-0.67648 -0.7571398,0.81628 0.8903591,0.89474 1.4133867,1.06946 0.6145794,0.0523 2.2090974,0.70047 1.1953793,1.28169 -1.0461693,0.0158 -1.9677382,-0.78081 -3.0080041,-0.69422 -0.5819268,0.89374 1.1282841,0.87297 1.6840843,1.16983 0.896485,-0.071 1.1289507,1.0568 0.093753,0.88714 -0.7395143,0.0315 -1.3855322,-0.46418 -2.1123324,-0.42591 -0.5646832,0.51246 -1.5391118,0.27267 -1.7866783,-0.45318 -0.5743579,-1.39032 0.2674082,-3.05279 1.547607,-3.70843 0.7735226,-0.32463 1.6327141,-0.11466 2.397106,0.12443 z"
         id="path837"
         inkscape:connector-curvature="0" />
      <path
         style="fill:#de553b;stroke-width:0.0423838"
         d="m 13.807371,282.48557 c 0.653452,0.29628 1.342794,0.5229 2.057035,0.61024 1.469827,0.20094 3.025835,0.081 4.369185,-0.58708 0.264133,-0.0918 0.0097,0.31113 -0.03325,0.44124 -0.397736,0.76575 -1.188761,1.22949 -1.974894,1.51357 -0.747791,0.26567 -1.591946,0.30049 -2.337364,0.008 -0.711302,-0.23578 -1.32517,-0.71785 -1.791271,-1.29742 -0.147988,-0.20076 -0.285663,-0.43193 -0.289444,-0.68866 z"
         id="path839"
         inkscape:connector-curvature="0" />
      <path
         style="fill:#faf2e7;stroke-width:0.0423838"
         d="m 15.922241,274.16138 c -0.01482,1.39515 -0.470561,2.72746 -0.729399,4.08543 0.04838,0.33948 -0.293144,0.43575 -0.517625,0.58382 -0.207528,0.19151 -0.527585,0.27156 -0.652039,0.53335 -0.258465,0.0935 -0.247484,-0.40845 -0.32888,-0.5981 -0.211087,-1.19349 0.04787,-2.44563 0.603063,-3.5131 0.206109,-0.26296 0.370968,-0.61569 0.526305,-0.85738 0.366351,-0.071 0.727427,-0.19755 1.098575,-0.23402 z"
         id="path841"
         inkscape:connector-curvature="0" />
      <path
         style="fill:#faf2e6;stroke-width:0.0423838"
         d="m 18.209754,274.11976 c 0.388777,0.0948 0.791098,0.14559 1.165336,0.29133 0.06843,0.27624 0.213223,0.50988 0.374985,0.74619 0.535428,0.89919 0.703639,1.96485 0.676495,2.99816 -0.01349,0.33506 0.04412,0.68532 -0.06681,1.00748 -0.08043,0.1611 -0.232248,0.3391 -0.34749,0.0983 -0.279429,-0.2867 -0.65527,-0.45021 -0.949433,-0.71606 -0.184944,-0.28208 -0.18696,-0.64246 -0.282711,-0.96065 -0.23088,-1.06373 -0.504358,-2.12745 -0.569734,-3.21765 -0.002,-0.0824 -0.002,-0.16476 -6.41e-4,-0.24711 z"
         id="path843"
         inkscape:connector-curvature="0" />
      <path
         style="fill:#292119;stroke-width:0.0423838"
         inkscape:connector-curvature="0"
         d="m 16.52649,273.28734 c 0.108104,0.0892 0.16445,0.16259 0.189069,0.29939 0.0072,0.11575 0.0074,0.22979 0.0052,0.34573 -4.75e-4,0.0435 -9.07e-4,0.087 -0.0014,0.13173 -0.01918,0.79579 -0.165456,1.59174 -0.342419,2.36799 -0.02447,0.10781 -0.04787,0.21581 -0.07127,0.32384 -0.30269,1.36748 -0.30269,1.36748 -0.55603,1.73394 -0.12965,0.0137 -0.12965,0.0137 -0.283241,0.0104 -0.0508,-6.4e-4 -0.101591,-10e-4 -0.153928,-0.002 -0.123918,-0.008 -0.123918,-0.008 -0.167079,-0.0501 -0.0066,-0.3837 0.110081,-0.76376 0.202587,-1.13375 0.04526,-0.18149 0.0892,-0.36327 0.133086,-0.54507 0.0086,-0.0354 0.01711,-0.0709 0.02593,-0.10737 0.193105,-0.80406 0.316069,-1.61776 0.394717,-2.43948 0.0035,-0.0359 0.0071,-0.0718 0.01069,-0.10882 0.0064,-0.0665 0.01226,-0.13304 0.01757,-0.19963 0.02143,-0.22721 0.0886,-0.39158 0.218902,-0.58006 0.128809,-0.0799 0.22961,-0.0669 0.377655,-0.0468 z"
         id="path845" />
      <path
         style="fill:#282018;stroke-width:0.0423838"
         inkscape:connector-curvature="0"
         d="m 17.745777,273.26913 c 0.161852,0.0182 0.161852,0.0182 0.283242,0.11966 0.216782,0.29474 0.199432,0.7061 0.225259,1.05236 0.07107,0.9191 0.259335,1.81231 0.473908,2.70913 0.007,0.0294 0.01403,0.0588 0.02125,0.0892 0.03315,0.13862 0.06697,0.27699 0.10195,0.4152 0.06983,0.28388 0.111272,0.54338 0.0921,0.83533 -0.07637,0.005 -0.152827,0.008 -0.229291,0.0104 -0.04256,0.002 -0.08513,0.004 -0.128977,0.006 -0.116499,-0.0163 -0.116499,-0.0163 -0.183674,-0.0865 -0.06854,-0.10585 -0.103723,-0.20049 -0.139862,-0.32026 -0.01362,-0.0446 -0.02723,-0.0892 -0.04126,-0.13514 -0.01421,-0.048 -0.0284,-0.096 -0.04304,-0.14548 -0.01498,-0.05 -0.02996,-0.0999 -0.0454,-0.15141 -0.04644,-0.15579 -0.09225,-0.31174 -0.138036,-0.4677 -0.01407,-0.0471 -0.02815,-0.0941 -0.04266,-0.14261 -0.310239,-1.03893 -0.515851,-2.10072 -0.53192,-3.18447 -7.77e-4,-0.0308 -0.0015,-0.0616 -0.0023,-0.0933 4.32e-4,-0.24748 0.0528,-0.47438 0.32872,-0.5102 z"
         id="path847" />
      <path
         style="fill:#261e17;stroke-width:0.0423838"
         d="m 16.181205,279.23914 c 0.39294,0.21648 0.604517,0.70934 0.507653,1.1448 -0.04172,0.12817 -0.08515,0.32315 -0.252098,0.32624 -0.250085,-0.003 -0.441185,-0.18972 -0.639614,-0.31795 -0.144534,-0.11249 -0.328549,-0.19454 -0.417123,-0.36281 -0.08624,-0.17419 -0.08873,-0.39798 0.01369,-0.56486 0.159449,-0.17423 0.392529,-0.30713 0.635743,-0.26125 0.0515,0.007 0.102234,0.02 0.151752,0.0358 z"
         id="path849"
         inkscape:connector-curvature="0" />
      <path
         style="fill:#261e17;stroke-width:0.0423838"
         d="m 18.609663,279.34384 c 0.155836,0.11522 0.198095,0.32955 0.16696,0.51133 -0.05588,0.20262 -0.218096,0.34993 -0.388015,0.46155 -0.191051,0.12876 -0.374065,0.27309 -0.580209,0.37707 -0.131797,0.0732 -0.283999,-0.0346 -0.335986,-0.15761 -0.107409,-0.24929 -0.0658,-0.54193 0.04152,-0.7838 0.09534,-0.21699 0.246876,-0.41718 0.45844,-0.53143 0.194452,-0.0526 0.405421,-0.0215 0.575481,0.0867 0.02081,0.0117 0.04142,0.0239 0.06181,0.0362 z"
         id="path851"
         inkscape:connector-curvature="0" />
      <path
         style="fill:#282018;stroke-width:0.0423838"
         inkscape:connector-curvature="0"
         d="m 19.461411,272.33005 c 0.1566,0.0911 0.267618,0.19843 0.366865,0.34598 0.03936,0.204 0.03816,0.39364 -0.07789,0.57391 -0.130225,0.15182 -0.217983,0.23394 -0.430087,0.25542 -0.24864,0.007 -0.401813,-0.006 -0.592617,-0.1764 -0.14268,-0.19722 -0.167761,-0.39068 -0.129482,-0.62432 0.08965,-0.18328 0.203291,-0.29884 0.388951,-0.38971 0.165633,-0.0511 0.310708,-0.0377 0.474261,0.0151 z"
         id="path853" />
      <path
         style="fill:#281f18;stroke-width:0.0423838"
         inkscape:connector-curvature="0"
         d="m 15.10219,272.33005 c 0.179354,0.10534 0.307998,0.22776 0.388445,0.41621 0.02094,0.21805 -0.0062,0.3566 -0.129482,0.54108 -0.212492,0.18492 -0.343209,0.22316 -0.623973,0.21965 -0.162883,-0.0171 -0.249602,-0.0716 -0.368721,-0.17803 -0.131665,-0.18622 -0.170583,-0.3625 -0.129482,-0.5827 0.194551,-0.36132 0.4562,-0.52138 0.863213,-0.41621 z"
         id="path855" />
      <path
         style="fill:#dd5e2b;stroke-width:0.0423838"
         inkscape:connector-curvature="0"
         d="m 13.893693,295.01348 c 0.220706,0.0445 0.434726,0.0929 0.647409,0.16649 0,0.0137 0,0.0275 0,0.0416 -0.498505,0 -0.99701,0 -1.510622,0 0,-0.0137 0,-0.0275 0,-0.0416 0.42729,-0.0206 0.42729,-0.0206 0.863213,-0.0416 0,-0.0412 0,-0.0824 0,-0.12487 z"
         id="path861" />
      <path
         style="fill:#d85238;stroke-width:0.0423838"
         inkscape:connector-curvature="0"
         d="m 18.857163,279.61372 c 0.01424,0 0.02849,0 0.04316,0 0.02347,0.1273 0.04316,0.24506 0.04316,0.37459 -0.08546,0.0412 -0.08546,0.0412 -0.172642,0.0832 -0.02849,-0.0275 -0.05697,-0.0549 -0.08632,-0.0832 0.02048,-0.0154 0.04095,-0.0309 0.06204,-0.0468 0.08997,-0.10411 0.09533,-0.19524 0.110599,-0.32777 z"
         id="path975" />
    </g>
  </g>
</svg>
