<?xml version="1.0" encoding="UTF-8"?>
<svg xmlns="http://www.w3.org/2000/svg" xmlns:xlink="http://www.w3.org/1999/xlink" width="16px" height="16px" viewBox="0 0 16 16" version="1.1">
<g id="surface1">
<path style=" stroke:none;fill-rule:nonzero;fill:rgb(17.254902%,44.313726%,41.176471%);fill-opacity:1;" d="M 2.480469 15.082031 C 2.285156 15.050781 2.160156 15.011719 1.996094 14.933594 C 1.84375 14.863281 1.773438 14.808594 1.628906 14.667969 C 1.480469 14.519531 1.429688 14.449219 1.347656 14.277344 C 1.164062 13.902344 1.175781 14.304688 1.183594 9.1875 L 1.191406 4.625 L 1.257812 4.4375 C 1.390625 4.070312 1.648438 3.78125 2.003906 3.609375 C 2.371094 3.433594 2.023438 3.445312 6.8125 3.445312 C 9.160156 3.445312 11.085938 3.453125 11.09375 3.464844 C 11.101562 3.472656 11.035156 3.640625 10.949219 3.832031 C 10.546875 4.746094 10.28125 5.765625 10.203125 6.722656 C 10.175781 7.066406 10.175781 7.765625 10.203125 8.144531 C 10.261719 8.957031 10.410156 9.722656 10.644531 10.40625 C 10.679688 10.511719 10.710938 10.621094 10.710938 10.648438 C 10.710938 10.757812 10.34375 11.277344 10.03125 11.605469 C 9.136719 12.558594 7.9375 13.074219 6.714844 13.035156 C 6.300781 13.023438 6.039062 12.980469 5.6875 12.875 C 4.773438 12.597656 3.980469 12.011719 3.492188 11.253906 C 3.070312 10.601562 2.855469 9.867188 2.855469 9.070312 C 2.855469 8.683594 2.878906 8.460938 2.964844 8.109375 C 3.128906 7.4375 3.421875 6.886719 3.855469 6.457031 C 4.207031 6.105469 4.488281 5.917969 4.90625 5.75 C 5.480469 5.523438 6.21875 5.503906 6.847656 5.707031 C 7.285156 5.847656 7.628906 6.058594 7.953125 6.378906 C 8.484375 6.902344 8.753906 7.5625 8.75 8.332031 C 8.75 8.980469 8.539062 9.539062 8.132812 9.976562 C 7.9375 10.1875 7.753906 10.320312 7.507812 10.4375 C 7.019531 10.664062 6.523438 10.695312 6.039062 10.527344 C 5.78125 10.441406 5.632812 10.34375 5.414062 10.128906 C 5.132812 9.851562 4.996094 9.589844 4.953125 9.253906 C 4.898438 8.8125 5.039062 8.382812 5.339844 8.082031 C 5.523438 7.898438 5.675781 7.828125 5.914062 7.816406 C 6.074219 7.808594 6.109375 7.816406 6.226562 7.867188 C 6.367188 7.929688 6.546875 8.097656 6.613281 8.222656 C 6.730469 8.453125 6.707031 8.667969 6.542969 8.832031 C 6.480469 8.890625 6.394531 8.949219 6.328125 8.972656 C 6.269531 8.996094 6.207031 9.023438 6.191406 9.035156 C 6.128906 9.082031 6.222656 9.21875 6.375 9.296875 C 6.445312 9.335938 6.5 9.347656 6.648438 9.347656 C 6.816406 9.347656 6.855469 9.335938 6.984375 9.277344 C 7.347656 9.105469 7.554688 8.714844 7.527344 8.253906 C 7.5 7.886719 7.363281 7.601562 7.070312 7.304688 C 6.855469 7.089844 6.636719 6.964844 6.328125 6.882812 C 6.078125 6.816406 5.707031 6.816406 5.472656 6.882812 C 4.683594 7.105469 4.105469 7.859375 4 8.804688 C 3.910156 9.605469 4.25 10.445312 4.867188 10.960938 C 5.265625 11.296875 5.589844 11.460938 6.066406 11.566406 C 6.242188 11.605469 6.351562 11.613281 6.640625 11.613281 C 7.027344 11.613281 7.300781 11.570312 7.605469 11.460938 C 8.894531 10.996094 9.75 9.625 9.6875 8.113281 C 9.65625 7.332031 9.417969 6.640625 8.972656 6.027344 C 8.90625 5.9375 8.726562 5.738281 8.570312 5.585938 C 7.976562 4.992188 7.296875 4.65625 6.453125 4.535156 C 6.105469 4.484375 5.476562 4.503906 5.160156 4.570312 C 3.457031 4.933594 2.238281 6.347656 1.933594 8.308594 C 1.886719 8.613281 1.882812 9.382812 1.925781 9.6875 C 2.164062 11.398438 3.148438 12.769531 4.675781 13.515625 C 5.15625 13.753906 5.738281 13.921875 6.304688 13.992188 C 6.597656 14.027344 7.28125 14.023438 7.585938 13.980469 C 8.121094 13.910156 8.660156 13.746094 9.160156 13.5 C 9.589844 13.289062 10.171875 12.886719 10.507812 12.570312 C 10.578125 12.503906 10.601562 12.492188 10.59375 12.523438 C 10.585938 12.546875 10.492188 12.980469 10.390625 13.480469 C 10.285156 13.984375 10.195312 14.40625 10.1875 14.417969 C 10.179688 14.429688 10.238281 14.433594 10.335938 14.425781 C 10.558594 14.414062 10.671875 14.355469 10.71875 14.226562 C 10.738281 14.175781 10.828125 13.785156 10.921875 13.363281 C 11.136719 12.351562 11.3125 11.546875 11.382812 11.226562 C 11.410156 11.085938 11.4375 10.929688 11.4375 10.886719 C 11.4375 10.839844 11.394531 10.691406 11.335938 10.550781 C 11.132812 10.03125 10.976562 9.402344 10.882812 8.738281 C 10.816406 8.25 10.800781 7.066406 10.851562 6.667969 C 10.945312 5.945312 11.199219 5.105469 11.535156 4.414062 C 12.011719 3.417969 12.890625 2.234375 13.90625 1.214844 C 14.410156 0.710938 14.890625 0.3125 15 0.3125 C 15.046875 0.3125 15.066406 0.363281 15.117188 0.609375 C 15.234375 1.175781 15.28125 2.175781 15.234375 2.960938 C 15.199219 3.507812 15.113281 4.191406 15.074219 4.226562 C 15.058594 4.242188 14.859375 4.371094 14.636719 4.515625 C 14.410156 4.660156 14.011719 4.917969 13.75 5.089844 L 13.269531 5.40625 L 13.214844 5.589844 C 13.167969 5.742188 13.046875 6.238281 13.046875 6.277344 C 13.046875 6.285156 13.230469 6.171875 13.449219 6.03125 C 14.628906 5.28125 14.933594 5.097656 14.941406 5.128906 C 14.953125 5.1875 14.792969 6.042969 14.714844 6.359375 C 14.671875 6.519531 14.605469 6.71875 14.566406 6.796875 L 14.492188 6.9375 L 13.851562 7.34375 C 12.859375 7.972656 12.8125 8.003906 12.777344 8.058594 C 12.742188 8.109375 12.644531 8.550781 12.617188 8.78125 L 12.601562 8.898438 L 12.730469 8.816406 C 13.144531 8.550781 14.191406 7.882812 14.234375 7.859375 C 14.265625 7.84375 14.292969 7.835938 14.296875 7.84375 C 14.316406 7.859375 14.03125 8.5625 13.855469 8.921875 C 13.425781 9.820312 13 10.453125 12.484375 10.957031 C 12.347656 11.09375 12.222656 11.230469 12.210938 11.261719 C 12.199219 11.296875 12.042969 11.945312 11.867188 12.707031 C 11.691406 13.46875 11.542969 14.113281 11.535156 14.136719 C 11.507812 14.21875 11.59375 14.097656 11.660156 13.957031 C 11.742188 13.78125 12.277344 11.972656 12.277344 11.863281 C 12.277344 11.828125 12.550781 11.566406 12.894531 11.273438 C 13.34375 10.898438 13.835938 10.332031 14.234375 9.738281 C 14.347656 9.5625 14.445312 9.425781 14.445312 9.429688 C 14.449219 9.429688 14.445312 10.4375 14.4375 11.664062 C 14.425781 13.597656 14.421875 13.90625 14.390625 14 C 14.230469 14.515625 13.894531 14.84375 13.347656 15.03125 L 13.191406 15.082031 L 7.863281 15.085938 C 4.933594 15.085938 2.511719 15.085938 2.480469 15.082031 Z M 2.480469 15.082031 "/>
</g>
</svg>
